<svg width="48" height="48" viewBox="0 0 48 48" fill="none" xmlns="http://www.w3.org/2000/svg">
    <g clip-path="url(#clip0_2152_42)">
    <mask id="mask0_2152_42" style="mask-type:luminance" maskUnits="userSpaceOnUse" x="0" y="0" width="48" height="48">
    <path d="M0 0H48V48H0V0Z" fill="white"/>
    </mask>
    <g mask="url(#mask0_2152_42)">
    <mask id="mask1_2152_42" style="mask-type:luminance" maskUnits="userSpaceOnUse" x="0" y="0" width="48" height="48">
    <path d="M13.452 0H34.548C41.976 0 48 5.92986 48 13.2418V34.7582C48 42.0701 41.976 48 34.548 48H13.452C6.024 48 0 42.0701 0 34.7582V13.2418C0 5.92986 6.024 0 13.452 0Z" fill="white"/>
    </mask>
    <g mask="url(#mask1_2152_42)">
    <path d="M0 0H48V48H0V0Z" fill="#0097B2"/>
    </g>
    </g>
    <path d="M29.7187 12.0099C30.0051 10.6297 30.1041 10.5985 31.4843 10.9162C32.7395 11.2391 33.9895 11.6245 35.276 11.7235C35.5937 11.7547 35.8853 11.786 36.2083 11.7235C36.4322 11.6558 36.526 11.463 36.526 11.2391C36.526 11.0151 36.3645 10.9162 36.1718 10.8849C34.4739 10.4995 32.8333 9.82763 31.0989 9.47346C28.8489 9.02555 27.1822 9.85888 26.1874 11.9162C25.7343 12.8433 25.4478 13.8433 25.2239 14.838C24.7083 17.312 24.4166 19.8172 24.3228 22.3224C24.2916 23.0933 24.2603 23.0933 23.552 23.3172C22.8124 23.5099 22.1041 23.7339 21.4322 24.1505C21.1718 24.312 20.6926 24.4735 20.8228 24.8276C20.9478 25.213 21.4322 25.0828 21.8176 25.0516C21.9426 25.0516 22.1041 24.9839 22.2343 24.9526C22.5885 24.8589 22.9426 24.7287 23.2968 24.6349C24.2603 24.3745 24.2603 24.3745 24.2916 25.338C24.2916 27.0724 24.4531 28.7755 24.7083 30.4787C24.9635 32.2755 25.3489 34.0776 26.2187 35.6818C27.6614 38.3485 30.9687 39.2495 33.5728 37.6714C35.401 36.5828 37.0416 35.2339 38.4843 33.6922C38.8697 33.2703 39.1926 32.8224 39.5156 32.4058C39.677 32.1818 39.7083 31.9891 39.5156 31.7651C39.0312 31.1193 38.776 31.1193 38.2291 31.6974C38.1353 31.7964 38.0676 31.8901 38.0051 31.9891C36.7864 33.562 35.276 34.812 33.6666 35.937C33.1562 36.2912 32.6406 36.6141 32.0937 36.9005C31.2291 37.3537 30.8437 37.1922 30.3906 36.2912C30.1041 35.713 29.9426 35.1037 29.8489 34.463C29.3333 31.4735 29.2708 28.4526 29.1718 25.4058C29.1406 24.536 29.1406 24.536 30.0728 24.5672C31.7395 24.5985 33.3801 24.6974 35.052 24.5672C35.6301 24.536 36.2083 24.4422 36.7499 24.2808C37.0103 24.1818 37.3281 24.088 37.2343 23.7339C37.1718 23.411 36.8801 23.3485 36.5937 23.3172C36.4947 23.3172 36.3645 23.3172 36.2395 23.3485C34.052 23.7651 31.901 23.4422 29.7187 23.2183C29.2708 23.187 29.1093 22.963 29.1093 22.5464C29.1406 21.2912 29.1406 20.0099 29.1406 18.7235C29.1718 16.4735 29.2708 14.1922 29.7187 12.0099Z" fill="white"/>
    </g>
    <defs>
    <clipPath id="clip0_2152_42">
    <rect width="48" height="48" fill="white"/>
    </clipPath>
    </defs>
    </svg>
    